<svg width="40" height="40" viewBox="0 0 40 40" fill="none" xmlns="http://www.w3.org/2000/svg">
<rect width="40" height="40" rx="5" fill="#54A6FF" fill-opacity="0.1"/>
<path d="M23.3334 26.3334H16.6667C16.12 26.3334 15.6667 25.88 15.6667 25.3334C15.6667 24.7867 16.12 24.3334 16.6667 24.3334H23.3334C23.88 24.3334 24.3334 24.7867 24.3334 25.3334C24.3334 25.88 23.88 26.3334 23.3334 26.3334Z" fill="#54A6FF"/>
<path d="M10.9333 17.9467C10.68 17.9467 10.4267 17.84 10.2267 17.6534C9.94667 17.3734 9.85333 16.9334 10.0133 16.56L12.4933 10.64C12.5467 10.52 12.5733 10.44 12.6133 10.3734C14.5867 5.82671 17.1067 4.72004 21.56 6.42671C21.8133 6.52004 22.0133 6.72004 22.12 6.97337C22.2267 7.22671 22.2267 7.50671 22.12 7.76004L18.2133 16.8267C18.0533 17.1867 17.6933 17.4267 17.2933 17.4267H13.4933C12.7333 17.4267 12.0133 17.5734 11.32 17.8667C11.2 17.92 11.0667 17.9467 10.9333 17.9467ZM18.1467 7.66671C16.4933 7.66671 15.48 8.74671 14.4267 11.2C14.4133 11.24 14.3867 11.28 14.3733 11.32L12.6267 15.4667C12.92 15.44 13.2 15.4267 13.4933 15.4267H16.6267L19.84 7.96004C19.2133 7.76004 18.6533 7.66671 18.1467 7.66671Z" fill="#54A6FF"/>
<path d="M28.3866 17.6933C28.2933 17.6933 28.1866 17.68 28.0933 17.6533C27.6 17.5067 27.0533 17.4267 26.4933 17.4267H17.2933C16.96 17.4267 16.64 17.2533 16.4533 16.9733C16.28 16.6933 16.24 16.3333 16.3733 16.0267L20.24 7.05332C20.44 6.57332 21.0133 6.25332 21.52 6.41332C21.68 6.46666 21.8266 6.53332 21.9866 6.59999L25.1333 7.91999C26.9733 8.67999 28.2 9.47999 29 10.44C29.16 10.6267 29.2933 10.8267 29.4133 11.0267C29.56 11.2533 29.6933 11.5333 29.7866 11.8133C29.8266 11.9067 29.8933 12.08 29.9333 12.2667C30.3066 13.52 30.12 15.08 29.32 17.08C29.16 17.4533 28.7866 17.6933 28.3866 17.6933ZM18.8133 15.4267H26.5066C26.9333 15.4267 27.3466 15.4667 27.76 15.5333C28.1333 14.3733 28.2133 13.48 28 12.76C27.9733 12.64 27.9466 12.5867 27.9333 12.5333C27.8533 12.32 27.8 12.2 27.7333 12.0933C27.64 11.9467 27.5733 11.8267 27.4666 11.7067C26.8933 11.0133 25.88 10.3733 24.3733 9.75999L21.7333 8.65333L18.8133 15.4267Z" fill="#54A6FF"/>
<path d="M25.2 34.3333H14.8C14.4267 34.3333 14.08 34.3066 13.7333 34.2666C9.05333 33.9466 6.38667 31.28 6.06667 26.5466C6.02667 26.2533 6 25.8933 6 25.5333V22.9333C6 19.9333 7.78667 17.2266 10.5467 16.0266C11.48 15.6266 12.48 15.4266 13.5067 15.4266H26.52C27.28 15.4266 28.0133 15.5333 28.6933 15.7466C31.8267 16.6933 34.0267 19.6533 34.0267 22.9333V25.5333C34.0267 25.8266 34.0133 26.1066 34 26.3733C33.7067 31.5866 30.6667 34.3333 25.2 34.3333ZM13.4933 17.4266C12.7333 17.4266 12.0133 17.5733 11.32 17.8666C9.29333 18.7466 7.98667 20.7333 7.98667 22.9333V25.5333C7.98667 25.8133 8.01333 26.0933 8.04 26.36C8.29333 30.16 10.16 32.0266 13.9067 32.28C14.24 32.32 14.5067 32.3466 14.7867 32.3466H25.1867C29.5867 32.3466 31.7467 30.4133 31.96 26.28C31.9733 26.04 31.9867 25.8 31.9867 25.5333V22.9333C31.9867 20.52 30.3733 18.36 28.08 17.6533C27.5867 17.5066 27.04 17.4266 26.48 17.4266H13.4933Z" fill="#54A6FF"/>
<path d="M6.98669 23.9333C6.44003 23.9333 5.98669 23.48 5.98669 22.9333V19.0266C5.98669 14.8266 8.96003 11.2 13.0667 10.4C13.4267 10.3333 13.8 10.4666 14.04 10.7466C14.2667 11.0266 14.3334 11.4266 14.1867 11.76L11.8534 17.3333C11.7467 17.5733 11.56 17.76 11.3334 17.8666C9.30669 18.7466 8.00003 20.7333 8.00003 22.9333C7.98669 23.48 7.54669 23.9333 6.98669 23.9333ZM11.4667 13.0933C9.76003 14.0533 8.52003 15.7333 8.13336 17.6933C8.72003 17.0933 9.40003 16.5866 10.1734 16.2133L11.4667 13.0933Z" fill="#54A6FF"/>
<path d="M33.0133 23.9333C32.4667 23.9333 32.0133 23.4799 32.0133 22.9333C32.0133 20.5199 30.4 18.3599 28.1067 17.6533C27.84 17.5733 27.6133 17.3866 27.4933 17.1333C27.3733 16.8799 27.36 16.5866 27.4667 16.3333C28.0933 14.7733 28.2533 13.6399 28 12.7599C27.9733 12.6399 27.9467 12.5866 27.9333 12.5333C27.76 12.1466 27.8533 11.6933 28.16 11.3999C28.4667 11.1066 28.9333 11.0399 29.3067 11.2399C32.2133 12.7599 34.0133 15.7466 34.0133 19.0266V22.9333C34.0133 23.4799 33.56 23.9333 33.0133 23.9333ZM29.6667 16.1199C30.5067 16.5066 31.2533 17.0533 31.88 17.7066C31.6267 16.3999 31 15.2133 30.08 14.2799C30.0133 14.8399 29.88 15.4533 29.6667 16.1199Z" fill="#54A6FF"/>
</svg>
