<svg width="40" height="40" viewBox="0 0 40 40" fill="none" xmlns="http://www.w3.org/2000/svg">
<rect width="40" height="40" rx="5" fill="#04AE1F" fill-opacity="0.1"/>
<path d="M26.24 31.7734C26.2267 31.7734 26.2 31.7734 26.1867 31.7734H11.4C7.48 31.4934 5.72 28.48 5.72 25.7867C5.72 23.3867 7.12 20.72 10.1733 19.9867C9.32 16.6534 10.04 13.52 12.2133 11.2534C14.68 8.66669 18.64 7.64002 22.04 8.69336C25.16 9.65336 27.36 12.2267 28.16 15.8C30.8933 16.4134 33.0667 18.48 33.9467 21.3334C34.8933 24.44 34.04 27.6267 31.7067 29.6667C30.2133 31.0134 28.2667 31.7734 26.24 31.7734ZM11.4267 21.8C11.4133 21.8 11.4133 21.8 11.4 21.8C8.86667 21.9867 7.70667 23.9334 7.70667 25.7867C7.70667 27.64 8.86667 29.5867 11.4533 29.7734H26.1733C27.72 29.7467 29.2 29.2134 30.3467 28.1734C32.4267 26.3467 32.5733 23.7467 32.0133 21.92C31.4533 20.08 29.8933 18 27.1733 17.6534C26.7333 17.6 26.3867 17.2667 26.3067 16.8267C25.7733 13.6267 24.04 11.4134 21.44 10.6134C18.7333 9.78669 15.6133 10.6 13.6533 12.64C11.88 14.4934 11.3733 17.0534 12.2 19.8667C12.88 19.96 13.5333 20.16 14.1333 20.4667C14.6267 20.72 14.8267 21.32 14.5733 21.8134C14.32 22.3067 13.72 22.5067 13.2267 22.2534C12.68 21.9734 12.08 21.8267 11.48 21.8267C11.4667 21.8 11.4533 21.8 11.4267 21.8Z" fill="#04AE1F"/>
<path d="M25.1333 18.2267C24.76 18.2267 24.4133 18.0267 24.24 17.6667C23.9867 17.1733 24.2 16.5733 24.6933 16.32C25.52 15.9067 26.44 15.68 27.3467 15.6667C27.88 15.6533 28.36 16.0933 28.36 16.6533C28.3733 17.2 27.9333 17.6667 27.3733 17.6667C26.76 17.68 26.1333 17.8267 25.5733 18.1067C25.4267 18.1867 25.28 18.2267 25.1333 18.2267Z" fill="#04AE1F"/>
</svg>
