<svg width="40" height="40" viewBox="0 0 40 40" fill="none" xmlns="http://www.w3.org/2000/svg">
<rect width="40" height="40" rx="5" fill="#FFC268" fill-opacity="0.1"/>
<path d="M33.3334 17C32.7867 17 32.3334 16.5466 32.3334 16V13.3333C32.3334 9.89329 30.1067 7.66663 26.6667 7.66663H13.3334C9.89335 7.66663 7.66669 9.89329 7.66669 13.3333V16C7.66669 16.5466 7.21335 17 6.66669 17C6.12002 17 5.66669 16.5466 5.66669 16V13.3333C5.66669 8.74663 8.74669 5.66663 13.3334 5.66663H26.6667C31.2534 5.66663 34.3334 8.74663 34.3334 13.3333V16C34.3334 16.5466 33.88 17 33.3334 17Z" fill="#FFC268"/>
<path d="M26.6667 34.3333H13.3334C8.74669 34.3333 5.66669 31.2533 5.66669 26.6667V24C5.66669 23.4533 6.12002 23 6.66669 23C7.21335 23 7.66669 23.4533 7.66669 24V26.6667C7.66669 30.1067 9.89335 32.3333 13.3334 32.3333H26.6667C30.1067 32.3333 32.3334 30.1067 32.3334 26.6667V24C32.3334 23.4533 32.7867 23 33.3334 23C33.88 23 34.3334 23.4533 34.3334 24V26.6667C34.3334 31.2533 31.2534 34.3333 26.6667 34.3333Z" fill="#FFC268"/>
<path d="M20.0001 21.4399C19.8268 21.4399 19.6534 21.3999 19.4934 21.3066L12.4268 17.2266C11.9468 16.9466 11.7868 16.3333 12.0668 15.8533C12.3468 15.3733 12.9601 15.2132 13.4268 15.4932L19.9868 19.2932L26.5068 15.5199C26.9868 15.2399 27.6001 15.4132 27.8668 15.8799C28.1468 16.3599 27.9735 16.9732 27.5068 17.2532L20.4934 21.3066C20.3468 21.3866 20.1735 21.4399 20.0001 21.4399Z" fill="#FFC268"/>
<path d="M20 28.6933C19.4533 28.6933 19 28.2399 19 27.6933V20.4399C19 19.8933 19.4533 19.4399 20 19.4399C20.5467 19.4399 21 19.8933 21 20.4399V27.6933C21 28.2399 20.5467 28.6933 20 28.6933Z" fill="#FFC268"/>
<path d="M20.0003 29.0001C19.227 29.0001 18.467 28.8267 17.8536 28.4934L13.587 26.1201C12.307 25.4134 11.3203 23.7201 11.3203 22.2534V17.7334C11.3203 16.2801 12.3203 14.5868 13.587 13.8668L17.8536 11.4934C19.0803 10.8134 20.9203 10.8134 22.147 11.4934L26.4136 13.8668C27.6936 14.5734 28.6803 16.2667 28.6803 17.7334V22.2534C28.6803 23.7067 27.6803 25.4001 26.4136 26.1201L22.147 28.4934C21.5336 28.8267 20.7736 29.0001 20.0003 29.0001ZM18.827 13.2534L14.5603 15.6267C13.907 15.9867 13.3203 17.0001 13.3203 17.7334V22.2534C13.3203 23.0001 13.907 24.0001 14.5603 24.3601L18.827 26.7334C19.4403 27.0667 20.5603 27.0667 21.1736 26.7334L25.4403 24.3601C26.0936 24.0001 26.6803 22.9867 26.6803 22.2534V17.7334C26.6803 16.9867 26.0936 15.9867 25.4403 15.6267L21.1736 13.2534C20.5603 12.9201 19.4403 12.9201 18.827 13.2534Z" fill="#FFC268"/>
</svg>
