<svg width="40" height="40" viewBox="0 0 40 40" fill="none" xmlns="http://www.w3.org/2000/svg">
<rect width="40" height="40" rx="5" fill="#533A7B" fill-opacity="0.1"/>
<path d="M20 34.3334C14.6667 34.3334 10.3333 30.5067 10.3333 25.8V20.8667C10.3333 20.32 10.7867 19.8667 11.3333 19.8667C11.88 19.8667 12.3333 20.32 12.3333 20.8667C12.3333 24.36 15.6267 27 20 27C24.3733 27 27.6667 24.36 27.6667 20.8667C27.6667 20.32 28.12 19.8667 28.6667 19.8667C29.2133 19.8667 29.6667 20.32 29.6667 20.8667V25.8C29.6667 30.5067 25.3333 34.3334 20 34.3334ZM12.3333 25.9467C12.4267 29.48 15.8267 32.3334 20 32.3334C24.1733 32.3334 27.5733 29.48 27.6667 25.9467C25.9333 27.8267 23.1867 29 20 29C16.8133 29 14.08 27.8267 12.3333 25.9467Z" fill="#533A7B"/>
<path d="M20 22.3333C16.32 22.3333 13.0133 20.68 11.4 18.0133C10.7067 16.88 10.3333 15.56 10.3333 14.2C10.3333 11.9066 11.36 9.74663 13.2133 8.11996C15.0267 6.53329 17.44 5.66663 20 5.66663C22.56 5.66663 24.96 6.5333 26.7867 8.10663C28.64 9.74663 29.6667 11.9066 29.6667 14.2C29.6667 15.56 29.2934 16.8666 28.6 18.0133C26.9867 20.68 23.68 22.3333 20 22.3333ZM20 7.66663C17.92 7.66663 15.9734 8.35996 14.52 9.63996C13.1067 10.8666 12.3333 12.4933 12.3333 14.2C12.3333 15.2 12.6 16.1333 13.1067 16.9733C14.3733 19.0533 17.0133 20.3333 20 20.3333C22.9867 20.3333 25.6267 19.04 26.8934 16.9733C27.4134 16.1333 27.6667 15.2 27.6667 14.2C27.6667 12.4933 26.8934 10.8666 25.4667 9.61329C24.0134 8.35996 22.08 7.66663 20 7.66663Z" fill="#533A7B"/>
<path d="M20 29C14.4933 29 10.3333 25.5066 10.3333 20.8666V14.2C10.3333 9.49329 14.6667 5.66663 20 5.66663C22.56 5.66663 24.96 6.5333 26.7867 8.10663C28.64 9.74663 29.6667 11.9066 29.6667 14.2V20.8666C29.6667 25.5066 25.5067 29 20 29ZM20 7.66663C15.7733 7.66663 12.3333 10.6 12.3333 14.2V20.8666C12.3333 24.36 15.6267 27 20 27C24.3733 27 27.6667 24.36 27.6667 20.8666V14.2C27.6667 12.4933 26.8934 10.8666 25.4667 9.61329C24.0134 8.35996 22.08 7.66663 20 7.66663Z" fill="#533A7B"/>
</svg>
