<svg width="80" height="56" viewBox="0 0 80 56" fill="none" xmlns="http://www.w3.org/2000/svg">
<path d="M6.65235 25.5187C5.16424 25.9087 3.87238 26.8256 3.02162 28.0955C2.17085 29.3655 1.8203 30.9003 2.0364 32.4091C2.2525 33.9178 3.02023 35.2957 4.1941 36.2815C5.36796 37.2673 6.86638 37.7925 8.40536 37.7577C9.94435 37.7229 11.4169 37.1304 12.5441 36.0925C13.6712 35.0546 14.3745 33.6435 14.5207 32.1265C14.667 30.6096 14.2459 29.0922 13.3374 27.8621C12.4289 26.6319 11.0961 25.7744 9.5915 25.4521" stroke="#00398F" stroke-width="0.858069" stroke-miterlimit="10"/>
<path d="M2.55806 19.6294H1.38818V32.0082H2.55806V19.6294Z" fill="#00398F"/>
<path d="M2.32638 31.0636C2.32638 31.0636 4.37719 32.9533 7.29887 32.509C10.2205 32.0647 12.8089 30.3445 14.5251 30.8594C16.2413 31.3742 13.7456 36.3138 11.4543 37.3341C9.16288 38.3545 6.4905 37.8663 4.35636 36.7561C2.22222 35.6459 1.52473 32.7997 1.61276 32.2443C1.70078 31.6888 2.32638 31.0636 2.32638 31.0636Z" fill="#00398F"/>
<path d="M8.1138 26.9363C9.08166 26.9363 9.86626 26.1596 9.86626 25.2016C9.86626 24.2435 9.08166 23.4668 8.1138 23.4668C7.14593 23.4668 6.36133 24.2435 6.36133 25.2016C6.36133 26.1596 7.14593 26.9363 8.1138 26.9363Z" fill="#80C0C0"/>
<path d="M10.3365 23.5391C11.34 23.5391 12.1535 22.7339 12.1535 21.7405C12.1535 20.7472 11.34 19.9419 10.3365 19.9419C9.33302 19.9419 8.51953 20.7472 8.51953 21.7405C8.51953 22.7339 9.33302 23.5391 10.3365 23.5391Z" fill="#80C0C0"/>
<path d="M9.63164 28.5957C10.0209 28.5957 10.3365 28.2833 10.3365 27.898C10.3365 27.5126 10.0209 27.2002 9.63164 27.2002C9.24234 27.2002 8.92676 27.5126 8.92676 27.898C8.92676 28.2833 9.24234 28.5957 9.63164 28.5957Z" fill="#80C0C0"/>
<path d="M8.01272 29.5083C8.2673 29.5083 8.47368 29.304 8.47368 29.052C8.47368 28.8 8.2673 28.5957 8.01272 28.5957C7.75814 28.5957 7.55176 28.8 7.55176 29.052C7.55176 29.304 7.75814 29.5083 8.01272 29.5083Z" fill="#80C0C0"/>
<path d="M8.75207 30.9803C8.91017 30.9803 9.03833 30.8534 9.03833 30.6969C9.03833 30.5404 8.91017 30.4136 8.75207 30.4136C8.59398 30.4136 8.46582 30.5404 8.46582 30.6969C8.46582 30.8534 8.59398 30.9803 8.75207 30.9803Z" fill="#80C0C0"/>
<path d="M25.1204 24.811V32.972C25.1204 34.0908 24.7123 35.0489 23.8961 35.8462C23.0799 36.6435 22.1064 37.0426 20.9757 37.0435C19.7635 37.0435 18.7516 36.6418 17.9398 35.8382C17.1187 35.0453 16.7079 34.0897 16.7075 32.9713V24.811H15.4751V33.0791C15.5065 34.5735 16.0149 35.8085 17.0004 36.7841C17.986 37.7597 19.316 38.2475 20.9905 38.2475C22.5616 38.2475 23.8405 37.7597 24.8274 36.7841C25.8143 35.8085 26.3225 34.5733 26.3521 33.0784V24.811H25.1204Z" fill="#00398F"/>
<path d="M56.0322 17.9717V38.0977H57.1833V17.9717H56.0322Z" fill="#00398F"/>
<path d="M69.0953 35.5639C67.9646 36.6836 66.6037 37.2434 65.0125 37.2434C63.4213 37.2434 62.0628 36.6891 60.937 35.5805C59.8095 34.4719 59.2459 33.1291 59.2464 31.5522C59.2454 31.3382 59.2597 31.1243 59.2894 30.9123H71.7562C71.7562 29.2716 71.1568 27.8525 69.9581 26.6552C68.5976 25.3085 66.949 24.6347 65.0125 24.6338C63.0956 24.6338 61.4542 25.3076 60.0884 26.6552C58.7225 28.0029 58.0396 29.6348 58.0396 31.5509C58.0396 33.4493 58.7225 35.0743 60.0884 36.4259C61.4542 37.7775 63.0956 38.4538 65.0125 38.4547C66.9486 38.4547 68.5971 37.7762 69.9581 36.4193C70.4186 35.9736 70.7207 35.6322 70.8645 35.3949L69.6423 34.9679C69.4693 35.1754 69.287 35.3741 69.0953 35.5639ZM60.929 27.508C62.0605 26.3887 63.4217 25.8289 65.0125 25.8284C66.6032 25.828 67.9642 26.3878 69.0953 27.508C69.7318 28.1342 70.2014 28.9069 70.462 29.7569H59.5091C59.8002 28.9086 60.2862 28.1387 60.929 27.508Z" fill="#00398F"/>
<path d="M77.9041 31.8497C77.444 31.3942 76.6726 30.877 75.5899 30.2978C74.9085 29.8708 74.4626 29.548 74.252 29.3293C73.9942 29.0725 73.8188 28.7458 73.748 28.3906C73.6771 28.0353 73.714 27.6672 73.8538 27.3326C73.9937 26.998 74.2304 26.7118 74.5342 26.51C74.8379 26.3082 75.1952 26.1998 75.561 26.1984C76.078 26.1984 76.4946 26.3598 76.8108 26.6826C77.1271 27.0055 77.3287 27.4846 77.4156 28.1201L78.4074 27.721V27.6644C78.4074 26.9913 78.1438 26.3926 77.6165 25.8685C77.0709 25.327 76.3859 25.0565 75.5617 25.057C75.1668 25.0512 74.775 25.1262 74.4107 25.2772C74.0465 25.4283 73.7177 25.6522 73.445 25.935C73.167 26.2101 72.9464 26.5367 72.7959 26.8963C72.6455 27.2558 72.568 27.6411 72.568 28.0303C72.568 28.4194 72.6455 28.8047 72.7959 29.1643C72.9464 29.5238 73.167 29.8504 73.445 30.1255C73.8186 30.4954 74.4906 30.9415 75.4609 31.4639C76.2851 31.9854 76.8317 32.3791 77.1005 32.6452C77.345 32.8733 77.539 33.1491 77.6702 33.4553C77.8014 33.7615 77.8668 34.0913 77.8624 34.4239C77.8674 34.9282 77.7205 35.4226 77.4402 35.8439C77.16 36.2652 76.7593 36.5942 76.2893 36.7889C75.8193 36.9837 75.3013 37.0354 74.8015 36.9373C74.3017 36.8393 73.8427 36.5959 73.4833 36.2385C72.9811 35.74 72.7298 35.1256 72.7294 34.3953L71.5938 34.6793C71.5938 35.5338 71.9521 36.3194 72.6689 37.036C73.0122 37.3768 73.4201 37.6472 73.8691 37.8317C74.3182 38.0162 74.7996 38.1111 75.2858 38.1111C75.772 38.1111 76.2535 38.0162 76.7025 37.8317C77.1516 37.6472 77.5594 37.3768 77.9028 37.036C78.6195 36.3189 78.979 35.4482 78.9813 34.4239C78.9822 33.4292 78.6231 32.5712 77.9041 31.8497Z" fill="#00398F"/>
<path d="M33.7716 38.3492C33.5606 38.3492 33.3489 38.3397 33.1366 38.3206C31.7798 38.1987 30.49 37.6812 29.4303 36.8337C28.3707 35.9862 27.5886 34.8466 27.1832 33.5591C26.7778 32.2717 26.7671 30.8941 27.1526 29.6006C27.538 28.3071 28.3023 27.1559 29.3487 26.2923C30.1983 25.5916 31.2057 25.1035 32.286 24.8695C33.3662 24.6355 34.4875 24.6624 35.5551 24.9479C36.6226 25.2334 37.605 25.7692 38.4193 26.5098C39.2335 27.2505 39.8557 28.1743 40.2331 29.2032C40.6105 30.2322 40.7322 31.3359 40.5877 32.4212C40.4433 33.5064 40.037 34.5413 39.4033 35.4384C38.7695 36.3354 37.9269 37.0682 36.9467 37.5749C35.9664 38.0816 34.8774 38.3471 33.7716 38.3492ZM30.1255 27.2149C29.2634 27.9263 28.6338 28.8748 28.3163 29.9405C27.9987 31.0061 28.0076 32.141 28.3416 33.2016C28.6757 34.2623 29.32 35.2011 30.193 35.8993C31.0661 36.5975 32.1287 37.0237 33.2464 37.1241C34.3642 37.2245 35.4869 36.9945 36.4727 36.4632C37.4584 35.9319 38.2628 35.1232 38.7842 34.1394C39.3057 33.1556 39.5207 32.0408 39.402 30.936C39.2834 29.8312 38.8365 28.786 38.1178 27.9327C37.6436 27.3618 37.0595 26.8899 36.3995 26.5444C35.7395 26.1989 35.0168 25.9865 34.2732 25.9198C33.5297 25.853 32.7801 25.9331 32.0681 26.1554C31.3561 26.3778 30.6958 26.7379 30.1255 27.2149Z" fill="#00398F"/>
<path d="M28.0546 19.6294H26.8848V32.0082H28.0546V19.6294Z" fill="#00398F"/>
<path d="M47.9885 38.3453C46.5728 38.3468 45.191 37.9162 44.0314 37.1123C42.8717 36.3085 41.9906 35.1703 41.5079 33.8529C41.0251 32.5354 40.9644 31.1027 41.3338 29.7499C41.7032 28.397 42.4849 27.1897 43.5724 26.2924C44.4218 25.5904 45.4296 25.1013 46.5105 24.8665C47.5914 24.6317 48.7135 24.6581 49.7818 24.9435C50.8502 25.229 51.8333 25.765 52.6481 26.5062C53.4628 27.2474 54.0852 28.172 54.4625 29.2018C54.8398 30.2315 54.9609 31.3361 54.8156 32.422C54.6703 33.5079 54.2629 34.5432 53.6277 35.4402C52.9926 36.3372 52.1485 37.0696 51.1669 37.5753C50.1853 38.0809 49.0951 38.3451 47.9885 38.3453ZM47.9731 25.912C46.6478 25.9106 45.3646 26.372 44.3492 27.215C43.3406 28.0471 42.6547 29.1996 42.4083 30.4761C42.1619 31.7526 42.3703 33.0742 42.998 34.2157C43.6256 35.3572 44.6337 36.248 45.8504 36.7362C47.0672 37.2244 48.4173 37.2799 49.6707 36.8932C50.9241 36.5065 52.0033 35.7015 52.7244 34.6154C53.4455 33.5294 53.7638 32.2294 53.6252 30.937C53.4865 29.6447 52.8995 28.4399 51.964 27.528C51.0286 26.616 49.8027 26.0534 48.4952 25.9359C48.3211 25.9199 48.1464 25.912 47.9731 25.912Z" fill="#00398F"/>
<path d="M42.2783 19.6294H41.1084V32.0082H42.2783V19.6294Z" fill="#00398F"/>
</svg>
