<svg width="54" height="54" viewBox="0 0 54 54" fill="none" xmlns="http://www.w3.org/2000/svg">
<rect width="54" height="54" rx="8" fill="#FFF9F0"/>
<path d="M31.2373 18.5126L32.9998 22.0376C33.2373 22.5251 33.8748 22.9876 34.4123 23.0876L37.5998 23.6126C39.6373 23.9501 40.1123 25.4251 38.6498 26.9001L36.1623 29.3876C35.7498 29.8001 35.5123 30.6126 35.6498 31.2001L36.3623 34.2751C36.9248 36.7001 35.6248 37.6501 33.4873 36.3751L30.4998 34.6001C29.9623 34.2751 29.0623 34.2751 28.5248 34.6001L25.5373 36.3751C23.3998 37.6376 22.0998 36.7001 22.6623 34.2751L23.3748 31.2001C23.4873 30.6001 23.2498 29.7876 22.8373 29.3751L20.3498 26.8876C18.8873 25.4251 19.3623 23.9501 21.3998 23.6001L24.5873 23.0751C25.1248 22.9876 25.7623 22.5126 25.9998 22.0251L27.7623 18.5001C28.7248 16.6001 30.2748 16.6001 31.2373 18.5126Z" fill="#FFC268"/>
<path d="M22 19.1875H14.5C13.9875 19.1875 13.5625 18.7625 13.5625 18.25C13.5625 17.7375 13.9875 17.3125 14.5 17.3125H22C22.5125 17.3125 22.9375 17.7375 22.9375 18.25C22.9375 18.7625 22.5125 19.1875 22 19.1875Z" fill="#FFC268"/>
<path d="M18.25 36.6875H14.5C13.9875 36.6875 13.5625 36.2625 13.5625 35.75C13.5625 35.2375 13.9875 34.8125 14.5 34.8125H18.25C18.7625 34.8125 19.1875 35.2375 19.1875 35.75C19.1875 36.2625 18.7625 36.6875 18.25 36.6875Z" fill="#FFC268"/>
<path d="M15.75 27.9375H14.5C13.9875 27.9375 13.5625 27.5125 13.5625 27C13.5625 26.4875 13.9875 26.0625 14.5 26.0625H15.75C16.2625 26.0625 16.6875 26.4875 16.6875 27C16.6875 27.5125 16.2625 27.9375 15.75 27.9375Z" fill="#FFC268"/>
</svg>
