<svg width="40" height="40" viewBox="0 0 40 40" fill="none" xmlns="http://www.w3.org/2000/svg">
<rect width="40" height="40" rx="5" fill="#292D32" fill-opacity="0.05"/>
<path d="M24 34.3333H16C8.76001 34.3333 5.66667 31.24 5.66667 24V16C5.66667 8.75996 8.76001 5.66663 16 5.66663H24C31.24 5.66663 34.3333 8.75996 34.3333 16V24C34.3333 31.24 31.24 34.3333 24 34.3333ZM16 7.66663C9.85334 7.66663 7.66667 9.85329 7.66667 16V24C7.66667 30.1466 9.85334 32.3333 16 32.3333H24C30.1467 32.3333 32.3333 30.1466 32.3333 24V16C32.3333 9.85329 30.1467 7.66663 24 7.66663H16Z" fill="#02111B"/>
<path d="M22.3467 27.6667H17.64C16.1733 27.6667 15.0133 26.9467 14.36 25.64L13.1733 23.2534C12.8933 22.68 12.32 22.3334 11.68 22.3334H6.65334C6.10667 22.3334 5.65334 21.88 5.65334 21.3334C5.65334 20.7867 6.12 20.3334 6.66667 20.3334H11.68C13.08 20.3334 14.3333 21.1067 14.96 22.36L16.1467 24.7467C16.4533 25.36 16.9467 25.6667 17.64 25.6667H22.3467C22.9867 25.6667 23.56 25.32 23.84 24.7467L25.0267 22.36C25.6533 21.1067 26.9067 20.3334 28.3067 20.3334H33.2933C33.84 20.3334 34.2933 20.7867 34.2933 21.3334C34.2933 21.88 33.84 22.3334 33.2933 22.3334H28.3067C27.6667 22.3334 27.0933 22.68 26.8133 23.2534L25.6267 25.64C25 26.8934 23.7467 27.6667 22.3467 27.6667Z" fill="#02111B"/>
</svg>
